# xmcd
#
# Track frame offsets: 
#        150
#        15165
#        37875
#        50730
#        78927
#        92904
#        108287
#        128612
#        148967
#        161290
#
# Disc length: 2370 seconds
#
# Revision: 0
# Processed by: cddbd v1.5.1PL2 Copyright (c) Steve Scherf et al.
# Submitted via: ExactAudioCopy v0.95b1
#
DISCID=7209400a
DTITLE=Brownie McGhee and Sonny Terry with Earl Hooker - I Couldn't Be
DTITLE=lieve My Eyes
DYEAR=1998
DGENRE=Blues
TTITLE0=Black Cat Bone
TTITLE1=Brownie's New Blues
TTITLE2=Poor Man Blues
TTITLE3=Tell Me Why
TTITLE4=My Baby's So Fine
TTITLE5=Don't Wait For Me
TTITLE6=I'm In Love With You Baby
TTITLE7=Parcel Post Blues
TTITLE8=When I Was Drinkin'
TTITLE9=I Couldn't Believe My Eyes
EXTD=
EXTT0=
EXTT1=
EXTT2=
EXTT3=
EXTT4=
EXTT5=
EXTT6=
EXTT7=
EXTT8=
EXTT9=
PLAYORDER=
